<?xml version="1.0" encoding="utf-8"?>
<svg id="master-artboard" viewBox="0 0 1242.6568603515625 438.8966064453125" version="1.1" xmlns="http://www.w3.org/2000/svg" x="0px" y="0px" style="enable-background:new 0 0 1400 980;" width="1242.6568603515625px" height="438.8966064453125px"><defs><style id="ee-google-fonts">@import url(https://fonts.googleapis.com/css?family=Aladin:400);</style><path id="text-path-0" d="M 558.140625 325.0699768066406 A 100 50 0 0 1 641.890625 325.0699768066406 A 100 50 0 0 1 558.140625 325.0699768066406 Z" style="fill: none; stroke: red; stroke-width: 2;"/></defs><rect id="ee-background" x="0" y="0" width="1242.6568603515625" height="438.8966064453125" style="fill: white; fill-opacity: 0; pointer-events: none;"/><path d="M 569.7805786132812 316.2327575683594 C 570.1279296875 316.168212890625 570.3831787109375 316.5751037597656 570.5463256835938 317.45343017578125 C 570.710693359375 318.3382873535156 570.6902465820312 319.1591491699219 570.4850463867188 319.9160461425781 C 570.286376953125 320.67169189453125 569.990234375 321.2861022949219 569.5967407226562 321.7592468261719 C 569.1965942382812 322.233642578125 568.726806640625 322.6429748535156 568.187255859375 322.9873046875 C 566.381591796875 324.2177429199219 564.5432739257812 324.542236328125 562.6723022460938 323.9608154296875 C 561.721923828125 323.6627197265625 560.958251953125 323.2383728027344 560.3812866210938 322.68780517578125 C 559.8056030273438 322.143798828125 559.2979736328125 321.4549255371094 558.8582763671875 320.6211853027344 C 558.194091796875 319.3816223144531 557.7268676757812 318.0343017578125 557.45654296875 316.5791931152344 C 557.1875 315.1306457519531 557.0731201171875 313.748291015625 557.1134643554688 312.43212890625 C 557.1537475585938 311.1159362792969 557.3492431640625 309.8320007324219 557.6998901367188 308.5802307128906 C 558.0570678710938 307.3272705078125 558.6948852539062 306.2527160644531 559.6133422851562 305.3565979003906 C 560.5264892578125 304.4682312011719 561.6712646484375 303.8962097167969 563.0477294921875 303.6405334472656 C 563.6376342773438 303.5309753417969 564.2681274414062 303.5121765136719 564.939208984375 303.58416748046875 C 565.60498046875 303.6639404296875 566.167236328125 303.8069763183594 566.6259765625 304.0133361816406 C 567.0794067382812 304.22747802734375 567.517578125 304.5970153808594 567.9405517578125 305.1219177246094 C 568.36474609375 305.6534118652344 568.6498413085938 306.3124084472656 568.7959594726562 307.0989685058594 C 568.9530029296875 307.9444885253906 568.8916625976562 308.745849609375 568.6118774414062 309.50299072265625 C 568.485595703125 309.84515380859375 568.2423706054688 310.1784973144531 567.8822631835938 310.5030517578125 C 567.5286865234375 310.8263854980469 567.0765991210938 311.0392150878906 566.5260620117188 311.1414794921875 C 565.6804809570312 311.29852294921875 565.0140380859375 311.0324401855469 564.526611328125 310.3431701660156 C 564.3211059570312 310.07623291015625 564.18603515625 309.76904296875 564.1215209960938 309.4216613769531 C 564.0570068359375 309.07427978515625 564.1405029296875 308.84857177734375 564.3720703125 308.7445068359375 C 564.6143188476562 308.62493896484375 564.81640625 308.3805847167969 564.9783935546875 308.011474609375 C 565.1326293945312 307.6369934082031 565.1689453125 307.2301940917969 565.0873413085938 306.7910461425781 C 565.0228271484375 306.44366455078125 564.8750610351562 306.1591796875 564.64404296875 305.9376525878906 C 564.21142578125 305.5433654785156 563.6641235351562 305.4076843261719 563.0021362304688 305.5306701660156 C 562.3401489257812 305.65362548828125 561.79638671875 306.0665283203125 561.3709106445312 306.7693786621094 C 560.9401245117188 307.4800109863281 560.6723022460938 308.3197021484375 560.5674438476562 309.2884826660156 C 560.3577270507812 311.22601318359375 560.3959350585938 312.9649658203125 560.6820678710938 314.5052795410156 C 560.9682006835938 316.04559326171875 561.4113159179688 317.2448425292969 562.011474609375 318.1029968261719 C 562.7369995117188 319.1616516113281 563.5289306640625 319.811279296875 564.3873291015625 320.0518798828125 C 564.9292602539062 320.1953430175781 565.5214233398438 320.2073974609375 566.163818359375 320.08807373046875 C 567.2453002929688 319.88720703125 568.1285400390625 319.22137451171875 568.8135986328125 318.090576171875 C 569.1087646484375 317.63568115234375 569.3250732421875 317.120849609375 569.46240234375 316.5461120605469 C 569.5237426757812 316.3652038574219 569.6298217773438 316.2607421875 569.7805786132812 316.2327575683594 ZM 573.9869995117188 307.02850341796875 L 574.2758178710938 309.7332763671875 C 574.2890625 309.8458251953125 574.33544921875 309.8974304199219 574.4149169921875 309.8880615234375 C 574.4877319335938 309.87945556640625 574.5570068359375 309.841064453125 574.6228637695312 309.77288818359375 C 575.049560546875 309.4070739746094 575.7628173828125 309.1651916503906 576.7625732421875 309.0472717285156 C 578.4508666992188 308.84814453125 579.6869506835938 309.2829895019531 580.4708862304688 310.35186767578125 C 580.760009765625 310.7541198730469 580.9459838867188 311.3061218261719 581.0287475585938 312.0079345703125 C 581.1123046875 312.7163391113281 581.1873779296875 313.69427490234375 581.2539672851562 314.9417419433594 C 581.314697265625 316.19659423828125 581.37548828125 317.0822448730469 581.4364013671875 317.5986633300781 C 581.6511840820312 319.41937255859375 582.0548095703125 320.593505859375 582.6473388671875 321.1210632324219 C 582.7509765625 321.20281982421875 582.8082275390625 321.2900390625 582.8192138671875 321.38275146484375 C 582.841064453125 321.568115234375 582.451416015625 321.70806884765625 581.6503295898438 321.80255126953125 C 579.49853515625 322.05633544921875 578.3047485351562 321.1835021972656 578.0689086914062 319.18402099609375 C 577.976806640625 318.40277099609375 578.032958984375 317.2851867675781 578.2373657226562 315.8312072753906 C 578.4425659179688 314.3838806152344 578.5057373046875 313.32586669921875 578.4268798828125 312.65716552734375 C 578.3480224609375 311.98846435546875 578.1315307617188 311.4903869628906 577.7774047851562 311.1629638671875 C 577.4174194335938 310.8429260253906 576.9593505859375 310.7156982421875 576.4031982421875 310.78131103515625 C 575.8470458984375 310.8468933105469 575.4208374023438 311.01800537109375 575.12451171875 311.29461669921875 C 574.8290405273438 311.5778503417969 574.6600341796875 311.85284423828125 574.61767578125 312.1196594238281 L 574.5803833007812 312.4865417480469 C 574.6019287109375 312.83978271484375 574.724365234375 313.96319580078125 574.9476928710938 315.8567199707031 C 575.1710205078125 317.7502746582031 575.3622436523438 318.97296142578125 575.5213012695312 319.5247802734375 C 575.6803588867188 320.0766296386719 575.7645874023438 320.39227294921875 575.7739868164062 320.4717102050781 C 575.8372192382812 321.00799560546875 575.5325927734375 321.5272521972656 574.8601684570312 322.02947998046875 C 574.1810913085938 322.5325012207031 573.4906005859375 322.82537841796875 572.788818359375 322.90814208984375 C 572.5305786132812 322.9385986328125 572.3839111328125 322.80487060546875 572.3488159179688 322.5069274902344 L 572.3363647460938 321.9747314453125 C 572.3790283203125 318.80792236328125 572.1864013671875 315.4104309082031 571.7584838867188 311.7822570800781 C 571.5921630859375 310.3720397949219 571.3671875 308.9485778808594 571.0836181640625 307.51190185546875 L 570.9823608398438 306.90960693359375 C 570.8875732421875 306.3904724121094 570.7289428710938 305.9560852050781 570.5064697265625 305.60638427734375 C 570.2905883789062 305.25592041015625 570.1002807617188 305.0367126464844 569.9354858398438 304.9487609863281 L 569.6708374023438 304.8389892578125 C 569.529052734375 304.7751770019531 569.45263671875 304.6968994140625 569.4417114257812 304.6042175292969 C 569.4112548828125 304.34600830078125 569.810791015625 303.9766540527344 570.6401977539062 303.4962158203125 C 571.4688720703125 303.0091247558594 572.1182250976562 302.73785400390625 572.5882568359375 302.6824035644531 C 573.058349609375 302.626953125 573.3253784179688 302.69952392578125 573.3892822265625 302.90008544921875 C 573.5737915039062 303.8382568359375 573.7730102539062 305.2143859863281 573.9869995117188 307.02850341796875 ZM 591.3695068359375 312.2017822265625 L 591.5493774414062 315.7776184082031 C 591.708984375 318.2591552734375 592.0742797851562 319.7320861816406 592.645263671875 320.1963806152344 C 592.7235717773438 320.2715148925781 592.7657470703125 320.35565185546875 592.771728515625 320.44879150390625 C 592.7897338867188 320.72821044921875 592.1965942382812 320.9066467285156 590.992431640625 320.9841003417969 C 589.794921875 321.0611267089844 589.1366577148438 320.7460632324219 589.0177001953125 320.0389099121094 C 588.987060546875 319.8738708496094 588.9550170898438 319.5318908691406 588.921630859375 319.012939453125 L 588.7438354492188 314.5351257324219 C 588.7352905273438 314.4020690917969 588.6578369140625 314.3402404785156 588.511474609375 314.34967041015625 C 587.6133422851562 314.4074401855469 586.7913208007812 314.71417236328125 586.0454711914062 315.26983642578125 C 585.29248046875 315.8193054199219 584.9412841796875 316.486572265625 584.9917602539062 317.2716064453125 C 585.0178833007812 317.67742919921875 585.1530151367188 318.0127868652344 585.3971557617188 318.27764892578125 C 585.6347045898438 318.54296875 585.9164428710938 318.6651306152344 586.242431640625 318.6441650390625 C 586.5684204101562 318.6231994628906 586.8338012695312 318.54266357421875 587.03857421875 318.4025573730469 C 587.2495727539062 318.25537109375 587.3710327148438 318.1707458496094 587.4030151367188 318.1486511230469 C 587.7249145507812 318.16802978515625 587.906005859375 318.4903869628906 587.9462280273438 319.11578369140625 C 587.9864501953125 319.74114990234375 587.7293701171875 320.2620544433594 587.1749267578125 320.6784973144531 C 586.6205444335938 321.0949401855469 586.02734375 321.323486328125 585.395263671875 321.3641357421875 C 584.7632446289062 321.40478515625 584.2106323242188 321.3301086425781 583.7374877929688 321.14007568359375 C 583.2705688476562 320.9429931640625 582.9249877929688 320.71136474609375 582.7007446289062 320.4451904296875 C 582.4765625 320.1790466308594 582.2865600585938 319.8739318847656 582.1307983398438 319.5299072265625 C 581.97705078125 319.11224365234375 581.889892578125 318.7437438964844 581.8693237304688 318.4244079589844 C 581.7854614257812 317.12042236328125 582.12744140625 316.0495910644531 582.895263671875 315.2119140625 C 583.6635131835938 314.3808898925781 584.6787109375 313.75445556640625 585.94091796875 313.3325500488281 C 587.615966796875 312.89080810546875 588.4811401367188 312.5278625488281 588.536376953125 312.24371337890625 C 588.5829467773438 312.03363037109375 588.5906372070312 311.6857604980469 588.5593872070312 311.2001037597656 C 588.49609375 310.2154541015625 587.9620971679688 309.7554626464844 586.95751953125 309.820068359375 C 586.5250854492188 309.8478698730469 586.1513061523438 310.0088806152344 585.8362426757812 310.30303955078125 C 585.5140380859375 310.5909729003906 585.3662109375 310.9411926269531 585.3927612304688 311.3536682128906 L 585.6054077148438 312.0113830566406 C 585.5926513671875 312.3328552246094 585.2686767578125 312.5407409667969 584.6334228515625 312.6350402832031 L 584.3359985351562 312.6842346191406 C 583.777099609375 312.7201843261719 583.3257446289062 312.6089172363281 582.9817504882812 312.3504638671875 C 582.6378173828125 312.0920104980469 582.4508056640625 311.7299499511719 582.4208984375 311.26422119140625 C 582.401611328125 310.96484375 582.4766845703125 310.6260070800781 582.6461181640625 310.2476806640625 C 582.81591796875 309.8760070800781 583.0432739257812 309.56744384765625 583.3280639648438 309.3219909667969 C 583.6133422851562 309.08319091796875 584.0628662109375 308.8538818359375 584.6766967773438 308.6340026855469 C 585.29052734375 308.4141540527344 585.8834838867188 308.28582763671875 586.4556884765625 308.2490234375 C 587.0344848632812 308.2118225097656 587.4848022460938 308.202880859375 587.8067016601562 308.2222595214844 C 588.1220092773438 308.2420654296875 588.5601806640625 308.3040771484375 589.1213989257812 308.40826416015625 C 589.6825561523438 308.512451171875 590.1552124023438 308.7459411621094 590.5392456054688 309.10870361328125 C 590.930419921875 309.4776916503906 591.1534423828125 309.880859375 591.208251953125 310.3182373046875 C 591.2631225585938 310.7556457519531 591.31689453125 311.38348388671875 591.3695068359375 312.2017822265625 ZM 595.1190795898438 305.5494384765625 L 594.448486328125 305.5371398925781 C 593.9486694335938 305.55035400390625 593.6253662109375 305.6822814941406 593.4786376953125 305.93292236328125 C 593.4467163085938 305.98712158203125 593.4007568359375 306.0150146484375 593.3408203125 306.0166015625 C 593.1008911132812 306.02294921875 592.9699096679688 305.6095886230469 592.9478759765625 304.77655029296875 C 592.926025390625 303.9501647949219 593.0386962890625 303.42034912109375 593.2859497070312 303.18707275390625 C 593.5267333984375 302.9606018066406 593.9603271484375 302.839111328125 594.5867919921875 302.8225402832031 C 595.2132568359375 302.8059997558594 595.642578125 302.9013366699219 595.8748168945312 303.1086120605469 C 596.100341796875 303.3160400390625 596.2198486328125 303.6730041503906 596.2332153320312 304.17950439453125 C 596.2464599609375 304.6793212890625 596.1724243164062 305.0314025878906 596.0111083984375 305.2357482910156 C 595.849609375 305.43341064453125 595.55224609375 305.5379638671875 595.1190795898438 305.5494384765625 M 593.2536010742188 319.74371337890625 L 593.3911743164062 313.2177734375 C 593.35009765625 311.6650085449219 593.1455688476562 310.6133728027344 592.7775268554688 310.0628967285156 C 592.6593017578125 309.8793029785156 592.5256958007812 309.7427673339844 592.3765869140625 309.6533508300781 C 592.2623901367188 309.6230163574219 592.2037963867188 309.55120849609375 592.2008056640625 309.43792724609375 C 592.1918334960938 309.0980529785156 592.6597290039062 308.7588806152344 593.6044311523438 308.42047119140625 C 594.5489501953125 308.07537841796875 595.2378540039062 307.8971252441406 595.6710205078125 307.8856506347656 C 596.11083984375 307.8740234375 596.34375 307.9812316894531 596.3697509765625 308.2073059082031 C 596.379638671875 308.58050537109375 596.357666015625 309.6414489746094 596.3038940429688 311.3901672363281 C 596.2432250976562 313.1323547363281 596.2384033203125 314.9664611816406 596.289306640625 316.8924560546875 C 596.3400268554688 318.8117980957031 596.48486328125 320.001708984375 596.7238159179688 320.46221923828125 C 596.7796020507812 320.5541076660156 596.8087158203125 320.6466979980469 596.8111572265625 320.7400207519531 C 596.8176879882812 320.9866027832031 596.4677734375 321.1192321777344 595.7613525390625 321.1379089355469 C 595.0482788085938 321.1567687988281 594.3135986328125 320.98944091796875 593.5573120117188 320.635986328125 C 593.3682250976562 320.547607421875 593.2669677734375 320.25018310546875 593.2536010742188 319.74371337890625 ZM 605.2538452148438 304.49859619140625 C 603.7369384765625 306.3096618652344 602.6299438476562 308.1304931640625 601.932861328125 309.9610900878906 L 601.9628295898438 309.9617919921875 C 604.5554809570312 310.0235290527344 606.0416259765625 310.062255859375 606.42138671875 310.07794189453125 C 606.8076171875 310.1004943847656 607.0178833007812 310.0921630859375 607.0521240234375 310.0529479980469 C 607.0928955078125 310.0205993652344 607.1240234375 309.9746398925781 607.1454467773438 309.9151306152344 C 606.880126953125 307.6148376464844 606.6640625 306.0459289550781 606.497314453125 305.2083740234375 C 606.3303833007812 304.37750244140625 606.153564453125 303.9598388671875 605.9669799804688 303.9554138183594 C 605.7803344726562 303.9509582519531 605.5426635742188 304.13201904296875 605.2538452148438 304.49859619140625 M 602.4508056640625 317.6155700683594 L 603.063232421875 317.5201416015625 C 603.2498779296875 317.5245666503906 603.3406982421875 317.6300964355469 603.3358154296875 317.8367004394531 C 603.3202514648438 318.4898681640625 603.1771850585938 319.03662109375 602.9066162109375 319.4769592285156 C 602.6361083984375 319.91729736328125 602.3019409179688 320.2261047363281 601.904296875 320.4033508300781 C 601.2635498046875 320.70819091796875 600.7198486328125 320.85528564453125 600.2733154296875 320.84466552734375 C 599.41357421875 320.8241882324219 598.7781372070312 320.4856262207031 598.366943359375 319.8290100097656 C 597.948974609375 319.1788635253906 597.7554931640625 318.2039794921875 597.7864379882812 316.90435791015625 C 597.8171997070312 315.61138916015625 598.2138671875 313.93701171875 598.976318359375 311.8812561035156 L 597.3468017578125 311.84246826171875 C 597.1401977539062 311.8375244140625 597.039306640625 311.7317810058594 597.0442504882812 311.5251770019531 C 597.0491943359375 311.31854248046875 597.2169799804688 310.9924621582031 597.5476684570312 310.546875 C 597.8785400390625 310.0946044921875 598.2205810546875 309.8726806640625 598.5737915039062 309.881103515625 L 599.8334350585938 309.9111022949219 C 601.2299194335938 306.9968566894531 602.8467407226562 304.4879455566406 604.6840209960938 302.3844299316406 C 605.1638793945312 301.835693359375 605.7528076171875 301.32623291015625 606.4508666992188 300.8560485839844 C 607.1422729492188 300.3857116699219 607.674560546875 300.15496826171875 608.0477905273438 300.1638488769531 C 608.4210205078125 300.1727600097656 608.6969604492188 300.3460388183594 608.8756713867188 300.6837158203125 C 609.3434448242188 301.48175048828125 609.8450927734375 304.3611755371094 610.3804931640625 309.3219909667969 C 610.5498046875 311.4532775878906 610.884033203125 313.6585388183594 611.38330078125 315.9377136230469 C 611.8756713867188 318.2234191894531 612.3507080078125 319.5584411621094 612.808349609375 319.9427795410156 C 612.919921875 320.018798828125 612.974365234375 320.1134338378906 612.9716186523438 320.22674560546875 C 612.9649658203125 320.50665283203125 612.562255859375 320.75714111328125 611.763427734375 320.97821044921875 C 610.964599609375 321.1992492675781 610.355224609375 321.3047790527344 609.9353637695312 321.2947692871094 C 609.5155029296875 321.2847900390625 609.19677734375 321.2271728515625 608.9791870117188 321.1219787597656 C 608.7550048828125 321.0166015625 608.6175537109375 320.9066467285156 608.5669555664062 320.79205322265625 C 608.2443237304688 320.0574951171875 607.9490966796875 318.3133239746094 607.6812133789062 315.55950927734375 L 607.542724609375 314.23583984375 C 607.4901733398438 313.3609924316406 607.4325561523438 312.6994323730469 607.369873046875 312.25115966796875 L 607.1732788085938 312.1064147949219 L 601.32568359375 311.93719482421875 C 601.0763549804688 312.8848571777344 600.9432983398438 313.7119140625 600.926513671875 314.41839599609375 C 600.90966796875 315.1248474121094 600.9207153320312 315.6419372558594 600.9595947265625 315.9696044921875 C 600.9984741210938 316.29730224609375 601.1434326171875 316.6508483886719 601.3944702148438 317.0302734375 C 601.6521606445312 317.40985107421875 602.0042724609375 317.6049499511719 602.4508056640625 317.6155700683594 ZM 613.2872924804688 316.5780029296875 C 613.4924926757812 314.7021179199219 613.6482543945312 313.1598205566406 613.754638671875 311.951171875 C 613.8609619140625 310.74249267578125 613.8759765625 309.5826721191406 613.7997436523438 308.47174072265625 C 613.8161010742188 308.2857666015625 614.01025390625 308.20916748046875 614.3821411132812 308.24188232421875 C 614.7540283203125 308.27459716796875 615.072021484375 308.34942626953125 615.3361206054688 308.46636962890625 C 615.6002197265625 308.5832824707031 615.78076171875 308.6995544433594 615.8776245117188 308.8151550292969 C 616.1502075195312 309.1402893066406 616.3096923828125 309.3049011230469 616.356201171875 309.3089904785156 C 616.4027099609375 309.3130798339844 616.5560913085938 309.2429504394531 616.81640625 309.0985412597656 C 617.5811767578125 308.6973571777344 618.4052124023438 308.5356140136719 619.2884521484375 308.6133117675781 C 620.1716918945312 308.6910400390625 620.9224853515625 308.9812927246094 621.5408325195312 309.48406982421875 C 622.165771484375 309.9874572753906 622.5855712890625 310.6166687011719 622.8002319335938 311.3717041015625 C 623.1890258789062 312.65740966796875 623.3220825195312 313.99755859375 623.1994018554688 315.3921813964844 C 623.0784301757812 316.7668762207031 622.7081298828125 318.1229553222656 622.0885620117188 319.4604797363281 C 621.7442016601562 320.1797180175781 621.2789916992188 320.75115966796875 620.6929321289062 321.17474365234375 C 620.113525390625 321.59893798828125 619.4619140625 321.7791748046875 618.738037109375 321.7154846191406 C 617.3035888671875 321.58929443359375 616.6590576171875 320.6993713378906 616.8045654296875 319.0457763671875 C 616.8436889648438 318.600830078125 616.9562377929688 318.38653564453125 617.1422119140625 318.40289306640625 C 617.1820678710938 318.4064025878906 617.287841796875 318.4591979980469 617.4595336914062 318.5613098144531 C 617.6251831054688 318.65618896484375 617.791015625 318.7109375 617.9570922851562 318.7255554199219 C 619.2786254882812 318.8418273925781 620.0623779296875 317.50201416015625 620.3084106445312 314.7061462402344 C 620.554931640625 311.9036560058594 619.970947265625 310.4401550292969 618.5564575195312 310.3157043457031 C 618.1712646484375 310.2818298339844 617.8346557617188 310.3425598144531 617.5465698242188 310.4978942871094 C 617.258544921875 310.65325927734375 617.0706787109375 310.81072998046875 616.9830322265625 310.9703369140625 L 616.848876953125 311.2396240234375 C 616.442626953125 312.8903503417969 616.0294799804688 316.1031799316406 615.609375 320.8780822753906 C 615.4194946289062 323.0364074707031 615.3228759765625 324.590576171875 615.3196411132812 325.5406188964844 C 615.3235473632812 326.4845886230469 615.3173828125 327.049560546875 615.301025390625 327.2355041503906 C 615.28466796875 327.42144775390625 615.2135620117188 327.58251953125 615.0878295898438 327.71868896484375 C 614.6732788085938 328.1707458496094 614.1336059570312 328.5616149902344 613.4688110351562 328.89129638671875 C 612.8046264648438 329.2143249511719 612.2301635742188 329.3545227050781 611.745361328125 329.3118591308594 C 611.5593872070312 329.2955017089844 611.4769287109375 329.16778564453125 611.4979858398438 328.9287109375 C 611.962158203125 327.0755920410156 612.55859375 322.9587097167969 613.2872924804688 316.5780029296875 ZM 623.7203979492188 317.53302001953125 C 624.028564453125 315.6712341308594 624.2689819335938 314.1398620605469 624.441650390625 312.93890380859375 C 624.6143798828125 311.7379150390625 624.6932373046875 310.5806884765625 624.67822265625 309.46722412109375 C 624.7047729492188 309.2824401855469 624.90283203125 309.2166442871094 625.2723388671875 309.269775390625 C 625.6419067382812 309.3229064941406 625.955322265625 309.4151306152344 626.2125854492188 309.5464172363281 C 626.4698486328125 309.6777038574219 626.6436767578125 309.8037109375 626.7340698242188 309.92449951171875 C 626.98828125 310.2641296386719 627.1385498046875 310.4372863769531 627.1846923828125 310.44390869140625 C 627.2308959960938 310.4505615234375 627.387939453125 310.3889465332031 627.6558227539062 310.25909423828125 C 628.4415283203125 309.9006042480469 629.273193359375 309.7844543457031 630.1508178710938 309.9106750488281 C 631.0284423828125 310.036865234375 631.7621459960938 310.3680114746094 632.351806640625 310.904052734375 C 632.9481201171875 311.4410705566406 633.3326416015625 312.0924377441406 633.5054321289062 312.858154296875 C 633.8228759765625 314.1632995605469 633.8820190429688 315.5087585449219 633.6827392578125 316.8945007324219 C 633.486328125 318.26043701171875 633.0419311523438 319.5941162109375 632.3496704101562 320.8954772949219 C 631.9662475585938 321.5946960449219 631.4702758789062 322.1396484375 630.86181640625 322.5303649902344 C 630.2599487304688 322.9220275878906 629.599365234375 323.0661315917969 628.880126953125 322.96270751953125 C 627.4547729492188 322.7577209472656 626.8602294921875 321.8337097167969 627.0964965820312 320.19061279296875 C 627.1600952148438 319.74847412109375 627.2842407226562 319.54071044921875 627.4690551757812 319.5672912597656 C 627.5086059570312 319.5729675292969 627.611328125 319.63153076171875 627.7771606445312 319.742919921875 C 627.9373779296875 319.8467712402344 628.0999145507812 319.91058349609375 628.264892578125 319.9342956542969 C 629.5780639648438 320.1231384277344 630.4343872070312 318.8284912109375 630.8338623046875 316.0504150390625 C 631.2343139648438 313.2657165527344 630.7317504882812 311.7723083496094 629.3262329101562 311.5701904296875 C 628.9434814453125 311.5151672363281 628.60400390625 311.5572814941406 628.307861328125 311.696533203125 C 628.0116577148438 311.8357849121094 627.8154296875 311.9826965332031 627.7191162109375 312.1372375488281 L 627.5703735351562 312.3987121582031 C 627.0739135742188 314.02459716796875 626.4845581054688 317.2098083496094 625.8023071289062 321.954345703125 C 625.493896484375 324.0989685058594 625.3119506835938 325.6454772949219 625.25634765625 326.5938720703125 C 625.2083740234375 327.5366516113281 625.1710815429688 328.10040283203125 625.14453125 328.2851867675781 C 625.117919921875 328.4699401855469 625.0381469726562 328.6268615722656 624.9050903320312 328.7558898925781 C 624.4662475585938 329.1844787597656 623.9058837890625 329.5450439453125 623.2239990234375 329.8376159667969 C 622.5430297851562 330.1236267089844 621.961669921875 330.2319641113281 621.47998046875 330.1626892089844 C 621.295166015625 330.1361389160156 621.2199096679688 330.0040588378906 621.2540283203125 329.7665100097656 C 621.8195190429688 327.9417419433594 622.6416625976562 323.8639221191406 623.7203979492188 317.53302001953125 ZM 642.2274169921875 321.14630126953125 C 642.06982421875 321.93743896484375 641.7826538085938 322.593994140625 641.3660278320312 323.115966796875 C 640.947998046875 323.64447021484375 640.518798828125 324.00762939453125 640.0783081054688 324.20538330078125 C 639.6378784179688 324.40313720703125 639.1365966796875 324.5309753417969 638.5744018554688 324.58892822265625 C 637.8370971679688 324.67315673828125 637.1840209960938 324.65863037109375 636.6151733398438 324.5452880859375 C 635.4252319335938 324.3082275390625 634.4815673828125 323.8755187988281 633.7842407226562 323.2471618652344 C 633.0921630859375 322.62664794921875 632.8483276367188 321.80316162109375 633.0528564453125 320.77667236328125 C 633.1726684570312 320.1751403808594 633.4344482421875 319.7140808105469 633.8381958007812 319.3934631347656 C 634.4680786132812 318.9275207519531 635.1392822265625 318.76556396484375 635.8519897460938 318.90753173828125 C 636.0742797851562 318.9518127441406 636.1652221679688 319.0753173828125 636.1248779296875 319.2779846191406 C 636.1209716796875 319.297607421875 636.0504150390625 319.4297180175781 635.913330078125 319.6742858886719 C 635.7749633789062 319.9254455566406 635.6653442382812 320.2536926269531 635.5845947265625 320.6590576171875 C 635.505126953125 321.0578918457031 635.5943603515625 321.4461364746094 635.8522338867188 321.82379150390625 C 636.111328125 322.19488525390625 636.4697875976562 322.4260559082031 636.9274291992188 322.5172119140625 C 637.3851318359375 322.6083984375 637.7662353515625 322.60614013671875 638.07080078125 322.5104675292969 C 638.3766479492188 322.40826416015625 638.6092529296875 322.2472839355469 638.7686157226562 322.0274963378906 C 638.9971923828125 321.733154296875 639.1408081054688 321.4388732910156 639.1994018554688 321.1446533203125 C 639.304931640625 320.6150817871094 639.1312866210938 320.1046447753906 638.6785278320312 319.6133728027344 C 638.2257690429688 319.12213134765625 637.7005615234375 318.7048034667969 637.102783203125 318.36138916015625 C 636.50634765625 318.0114440917969 635.9940795898438 317.5287170410156 635.5661010742188 316.9132385253906 C 635.139404296875 316.2912292480469 635.0022583007812 315.59771728515625 635.1546630859375 314.832763671875 C 635.4177856445312 313.5120544433594 636.0302734375 312.6042175292969 636.9921875 312.1092834472656 C 637.9527587890625 311.6208801269531 639.1489868164062 311.5193176269531 640.5808715820312 311.8045654296875 C 641.2020263671875 311.9283142089844 641.8388671875 312.1435546875 642.4915161132812 312.4503173828125 C 643.1428833007812 312.76361083984375 643.427490234375 313.126220703125 643.345458984375 313.5381164550781 C 643.263427734375 313.95001220703125 643.1192016601562 314.3155517578125 642.912841796875 314.6347351074219 C 642.70654296875 314.95391845703125 642.5020141601562 315.0932922363281 642.29931640625 315.05291748046875 C 642.1881713867188 315.0307922363281 642.1240844726562 314.97723388671875 642.1069946289062 314.8922424316406 C 642.084716796875 314.7994384765625 642.0388793945312 314.6883544921875 641.969482421875 314.5589599609375 C 641.9000854492188 314.4295654296875 641.7090454101562 314.245361328125 641.3964233398438 314.00634765625 C 641.0850830078125 313.7607727050781 640.80517578125 313.6132507324219 640.5567016601562 313.5637512207031 C 640.3082275390625 313.5142517089844 640.1434936523438 313.48822021484375 640.0624389648438 313.4856872558594 C 639.9761352539062 313.47528076171875 639.8270874023438 313.4727783203125 639.6152954101562 313.4781799316406 C 639.4035034179688 313.4835510253906 639.2067260742188 313.5157470703125 639.0250244140625 313.57470703125 C 638.5596923828125 313.7267150878906 638.2814331054688 314.03155517578125 638.1903076171875 314.4892272949219 C 638.1316528320312 314.783447265625 638.1508178710938 315.0115966796875 638.2476806640625 315.17364501953125 C 638.35107421875 315.3370056152344 638.4315795898438 315.4617919921875 638.4891967773438 315.54803466796875 C 638.5454711914062 315.6408386230469 638.6553955078125 315.7544860839844 638.8189086914062 315.8890380859375 C 638.982421875 316.0235900878906 639.0995483398438 316.1182861328125 639.170166015625 316.1731262207031 C 639.2342529296875 316.2266845703125 639.382080078125 316.33770751953125 639.6136474609375 316.5061950683594 C 639.8451538085938 316.6746826171875 639.9929809570312 316.78570556640625 640.05712890625 316.8392639160156 C 641.8165893554688 318.1414489746094 642.5400390625 319.5771484375 642.2274169921875 321.14630126953125 Z" transform="matrix(14.207890510559082, 0, 0, 14.207890510559082, -7906.9404296875, -4258.5126953125)" style="fill: rgb(220, 18, 0); white-space: pre; color: rgb(51, 51, 51); fill-opacity: 0.8;"/></svg>